<?xml version="1.0" standalone="no"?>
<!DOCTYPE svg PUBLIC "-//W3C//DTD SVG 20010904//EN"
 "http://www.w3.org/TR/2001/REC-SVG-20010904/DTD/svg10.dtd">
<svg version="1.0" xmlns="http://www.w3.org/2000/svg"
 width="310.000000pt" height="310.000000pt" viewBox="0 0 310.000000 310.000000"
 preserveAspectRatio="xMidYMid meet">

<g transform="translate(0.000000,310.000000) scale(0.100000,-0.100000)"
fill="#000000" stroke="none">
<path d="M2068 1663 l-3 -248 -55 0 -55 0 0 143 0 144 -35 -6 c-19 -3 -29 -2
-23 2 16 10 -631 127 -652 118 -9 -3 -14 -2 -11 2 7 11 -185 45 -195 35 -3 -4
-69 -98 -144 -208 -76 -110 -154 -222 -173 -250 -54 -76 -19 -37 146 166 84
102 160 193 170 203 18 15 21 13 71 -44 29 -33 57 -57 63 -54 6 4 8 2 5 -4 -9
-13 250 -308 266 -304 7 2 9 0 5 -4 -4 -4 13 -31 38 -61 l46 -53 -85 0 c-77 0
-92 -3 -148 -32 -75 -39 -136 -109 -170 -195 -20 -49 -24 -76 -24 -178 0 -109
2 -125 26 -176 91 -194 319 -258 480 -135 47 35 100 119 85 133 -5 4 -11 2
-13 -5 -3 -7 -19 -32 -37 -55 -83 -109 -249 -122 -344 -27 -68 68 -102 168
-102 306 0 129 26 210 88 274 120 123 320 75 365 -87 12 -46 21 -53 31 -27 6
16 8 16 25 0 9 -9 21 -13 25 -9 4 5 6 1 4 -7 -3 -13 77 -15 664 -18 l667 -2
-86 127 c-127 186 -140 203 -148 195 -5 -4 -5 -2 -2 4 4 6 -33 69 -82 140
l-89 129 -173 25 -174 25 -3 133 -3 132 -119 0 -120 0 -2 -247z"/>
<path d="M167 1223 c-4 -4 6 -12 23 -19 17 -7 35 -25 40 -39 14 -36 13 -583
-1 -623 -7 -20 -22 -35 -42 -44 -52 -21 322 -25 379 -3 168 64 155 298 -21
365 -33 13 -31 16 35 52 35 20 70 86 70 133 0 49 -35 111 -78 140 -22 14 -65
30 -98 35 -67 11 -297 13 -307 3z m313 -42 c50 -26 75 -74 74 -141 0 -104 -59
-160 -169 -160 l-55 0 0 160 0 160 58 0 c37 0 70 -7 92 -19z m-3 -342 c68 -26
106 -88 107 -175 0 -45 -6 -70 -22 -96 -30 -49 -101 -76 -167 -64 -62 12 -65
20 -65 192 l0 154 59 0 c33 0 72 -5 88 -11z"/>
<path d="M756 1223 c-4 -4 8 -14 26 -23 22 -10 34 -25 40 -49 5 -18 8 -163 6
-321 -3 -267 -4 -289 -22 -309 -11 -12 -27 -21 -38 -21 -10 0 -18 -4 -18 -10
0 -6 47 -10 120 -10 73 0 120 4 120 10 0 6 -9 10 -20 10 -11 0 -28 12 -37 27
-16 24 -18 56 -18 318 0 159 3 302 7 316 5 16 20 31 38 39 16 7 30 16 30 21 0
11 -223 12 -234 2z"/>
<path d="M1965 900 c3 -5 8 -10 11 -10 2 0 4 5 4 10 0 6 -5 10 -11 10 -5 0 -7
-4 -4 -10z"/>
<path d="M1802 850 c0 -19 2 -27 5 -17 2 9 2 25 0 35 -3 9 -5 1 -5 -18z"/>
<path d="M2738 863 c6 -2 18 -2 25 0 6 3 1 5 -13 5 -14 0 -19 -2 -12 -5z"/>
<path d="M3022 845 c0 -16 2 -22 5 -12 2 9 2 23 0 30 -3 6 -5 -1 -5 -18z"/>
<path d="M1821 763 c-28 -23 -43 -87 -31 -138 16 -72 79 -97 125 -50 22 21 25
33 25 90 0 57 -3 69 -25 90 -28 29 -64 32 -94 8z m72 -18 c21 -21 29 -79 17
-124 -18 -66 -72 -67 -91 -1 -26 86 26 174 74 125z"/>
<path d="M1990 671 c0 -132 18 -151 22 -24 l3 88 35 -90 c48 -124 64 -122 68
9 4 131 -11 160 -18 36 l-5 -95 -35 90 c-23 59 -42 91 -53 93 -15 3 -17 -8
-17 -107z"/>
<path d="M2195 755 c-22 -21 -25 -33 -25 -90 0 -57 3 -69 25 -90 32 -33 95
-32 95 1 0 11 -5 11 -25 2 -20 -9 -28 -8 -44 6 -25 23 -34 76 -21 125 11 42
28 54 66 45 26 -7 34 10 8 20 -30 12 -55 6 -79 -19z"/>
<path d="M2335 768 c-3 -8 -4 -58 -3 -111 3 -101 21 -138 26 -54 4 63 24 62
57 -3 14 -27 30 -50 35 -50 14 0 13 3 -12 54 -20 43 -21 46 -5 64 20 22 22 75
4 90 -7 6 -32 14 -55 18 -32 5 -43 3 -47 -8z m85 -33 c20 -24 -3 -65 -35 -65
-23 0 -25 4 -25 40 0 35 3 40 24 40 13 0 29 -7 36 -15z"/>
<path d="M2505 767 c-3 -7 -4 -58 -3 -113 l3 -99 48 0 c56 0 68 19 15 23 -37
3 -38 4 -38 43 0 37 2 39 30 39 17 0 30 5 30 10 0 6 -13 10 -30 10 -28 0 -30
3 -30 35 0 33 2 35 36 35 51 0 39 24 -14 28 -29 2 -44 -1 -47 -11z"/>
<path d="M2627 774 c-11 -12 3 -24 29 -24 24 0 24 -1 24 -94 0 -53 4 -98 10
-101 6 -4 10 30 10 94 0 99 0 100 25 103 14 2 27 8 28 13 2 11 -115 20 -126 9z"/>
<path d="M2805 758 c-20 -18 -27 -35 -31 -78 -6 -63 8 -97 47 -119 58 -32 109
16 109 104 0 100 -63 146 -125 93z m79 -20 c24 -34 21 -130 -3 -152 -45 -41
-84 6 -78 93 5 75 48 106 81 59z"/>
<path d="M2980 760 c-11 -11 -20 -28 -20 -38 0 -22 36 -57 67 -66 39 -12 41
-69 2 -81 -10 -3 -28 -1 -39 5 -12 7 -25 9 -28 5 -11 -10 29 -35 55 -35 26 0
73 41 73 62 0 24 -31 58 -66 73 -37 15 -45 43 -19 65 12 10 21 10 40 2 30 -14
44 2 16 17 -30 17 -59 13 -81 -9z"/>
<path d="M892 413 c406 -2 1070 -2 1475 0 406 1 74 2 -737 2 -811 0 -1143 -1
-738 -2z"/>
<path d="M708 334 c-5 -4 -8 -40 -8 -80 0 -70 1 -74 24 -80 36 -9 46 2 46 50
0 44 -14 68 -36 59 -8 -3 -14 6 -16 27 -2 18 -6 28 -10 24z m40 -106 c-3 -47
-21 -55 -26 -12 -4 31 4 54 18 54 7 0 10 -17 8 -42z"/>
<path d="M831 324 c0 -11 3 -14 6 -6 3 7 2 16 -1 19 -3 4 -6 -2 -5 -13z"/>
<path d="M900 255 c0 -50 4 -85 10 -85 6 0 10 35 10 85 0 50 -4 85 -10 85 -6
0 -10 -35 -10 -85z"/>
<path d="M210 250 c0 -52 4 -79 10 -75 6 3 10 37 10 75 0 38 -4 72 -10 75 -6
4 -10 -23 -10 -75z"/>
<path d="M1752 322 c-9 -6 -12 -29 -10 -78 l3 -69 30 0 c23 0 31 5 33 23 2 12
-1 22 -7 22 -6 0 -11 -6 -11 -14 0 -28 -20 -27 -31 0 -13 36 -2 104 17 104 8
0 14 -7 14 -15 0 -8 5 -15 11 -15 6 0 9 10 7 23 -3 23 -33 34 -56 19z"/>
<path d="M2228 293 c-2 -10 -1 -40 2 -68 4 -37 9 -51 23 -53 9 -2 17 1 17 7 0
6 -4 11 -10 11 -15 0 -12 77 3 83 10 4 10 6 0 6 -7 1 -13 8 -13 16 0 21 -18
19 -22 -2z"/>
<path d="M2660 245 c0 -50 4 -67 15 -72 9 -3 19 -2 23 2 4 4 1 10 -5 12 -8 3
-13 21 -13 43 0 21 6 41 13 43 10 4 10 6 0 6 -7 1 -13 8 -13 16 0 8 -4 15 -10
15 -6 0 -10 -28 -10 -65z"/>
<path d="M303 282 c-20 -3 -23 -9 -23 -52 0 -64 18 -74 22 -13 2 35 7 48 18
48 11 0 17 -15 21 -50 l6 -50 1 56 c2 60 -4 68 -45 61z"/>
<path d="M433 282 c-21 -3 -23 -9 -23 -58 0 -30 5 -54 10 -54 6 0 10 23 10 51
0 67 23 62 29 -7 l5 -49 5 49 c8 69 31 74 31 7 0 -28 5 -51 10 -51 17 0 12
107 -5 113 -8 4 -17 2 -21 -4 -3 -6 -11 -6 -17 -2 -7 5 -22 7 -34 5z"/>
<path d="M593 283 c-8 -3 -13 -24 -13 -54 0 -53 17 -72 49 -52 22 14 26 76 6
97 -17 17 -22 18 -42 9z m32 -59 c0 -28 -4 -39 -15 -39 -16 0 -26 45 -16 72
11 28 31 7 31 -33z"/>
<path d="M1062 278 c-17 -17 -15 -33 3 -18 8 6 19 9 25 5 17 -11 11 -23 -16
-29 -20 -5 -25 -12 -22 -34 2 -22 8 -27 33 -29 l30 -1 -4 51 c-4 61 -22 82
-49 55z m35 -64 c1 -5 -2 -16 -7 -24 -12 -20 -33 0 -24 24 7 17 25 17 31 0z"/>
<path d="M1352 278 c-17 -17 -15 -33 3 -18 8 6 19 9 25 5 17 -11 11 -23 -16
-29 -20 -5 -25 -12 -22 -34 2 -22 8 -27 33 -29 l30 -1 -4 51 c-4 61 -22 82
-49 55z m35 -64 c1 -5 -2 -16 -7 -24 -12 -20 -33 0 -24 24 7 17 25 17 31 0z"/>
<path d="M1882 281 c-9 -5 -12 -24 -10 -57 2 -39 7 -50 22 -52 40 -8 63 70 30
102 -18 18 -24 19 -42 7z m33 -57 c0 -28 -4 -39 -15 -39 -16 0 -26 45 -16 72
11 28 31 7 31 -33z"/>
<path d="M2025 280 c-3 -5 -12 -7 -20 -3 -12 4 -15 -6 -15 -51 0 -68 18 -75
22 -9 4 63 28 71 28 9 0 -24 5 -48 10 -51 6 -4 10 15 10 48 0 39 -4 56 -15 60
-8 4 -17 2 -20 -3z"/>
<path d="M2133 283 c-19 -7 -16 -34 8 -59 23 -25 17 -53 -7 -33 -11 9 -14 8
-14 -5 0 -21 46 -22 54 -1 7 20 -2 42 -20 49 -8 3 -14 13 -14 22 0 11 5 14 16
10 10 -4 14 -1 12 6 -5 14 -18 18 -35 11z"/>
<path d="M2555 274 c-16 -17 -20 -71 -6 -92 12 -20 45 -10 49 13 3 18 2 19 -8
2 -17 -26 -30 -11 -30 34 0 27 4 39 14 39 8 0 17 -6 19 -12 4 -8 6 -7 6 3 1
24 -25 31 -44 13z"/>
<path d="M2773 283 c-18 -7 -27 -67 -14 -92 13 -23 45 -28 57 -10 12 20 7 91
-7 100 -15 10 -18 10 -36 2z m32 -59 c0 -28 -4 -39 -15 -39 -16 0 -26 45 -16
72 11 28 31 7 31 -33z"/>
<path d="M2993 283 c-7 -2 -13 -12 -13 -21 0 -12 3 -13 12 -4 16 16 28 15 28
-2 0 -7 -9 -16 -20 -19 -15 -4 -20 -14 -20 -36 0 -29 3 -31 30 -29 29 2 30 4
30 48 0 25 -5 51 -12 58 -13 13 -16 13 -35 5z m27 -72 c0 -23 -16 -36 -25 -21
-9 14 1 40 15 40 5 0 10 -9 10 -19z"/>
<path d="M833 225 c0 -33 2 -45 4 -27 2 18 2 45 0 60 -2 15 -4 0 -4 -33z"/>
<path d="M983 225 c0 -33 2 -45 4 -27 2 18 2 45 0 60 -2 15 -4 0 -4 -33z"/>
<path d="M1170 223 c0 -29 5 -53 10 -53 6 0 10 20 10 45 0 25 5 45 10 45 6 0
10 4 10 9 0 6 -9 9 -20 8 -17 -1 -20 -8 -20 -54z"/>
<path d="M1273 225 c0 -33 2 -45 4 -27 2 18 2 45 0 60 -2 15 -4 0 -4 -33z"/>
<path d="M1544 258 c15 -53 18 -106 7 -112 -16 -10 -14 -26 3 -20 8 3 22 36
30 74 19 81 19 83 6 75 -5 -3 -10 -21 -10 -38 0 -24 -3 -28 -10 -17 -5 8 -10
25 -10 38 0 12 -5 22 -11 22 -7 0 -9 -9 -5 -22z"/>
<path d="M2320 229 c0 -26 5 -51 10 -54 6 -4 10 9 10 31 0 21 7 45 15 54 15
16 14 18 -10 18 -23 0 -25 -4 -25 -49z"/>
<path d="M2422 228 c3 -52 4 -53 36 -55 l32 -1 0 54 c0 66 -18 72 -22 7 -4
-66 -28 -70 -28 -4 0 29 -5 51 -11 51 -6 0 -9 -21 -7 -52z"/>
<path d="M2880 224 c0 -30 5 -54 10 -54 6 0 10 19 10 41 0 28 6 46 17 54 15
11 14 13 -10 13 -26 0 -27 -3 -27 -54z"/>
</g>
</svg>
